<svg width="900" height="160" viewBox="0 0 900 160" xmlns="http://www.w3.org/2000/svg">
  <rect width="900" height="160" fill="#0a0a0f"/>
  <!-- Grid lines -->
  <line x1="0" y1="20" x2="900" y2="20" stroke="#00fff720" stroke-width="0.5"/>
  <line x1="0" y1="40" x2="900" y2="40" stroke="#00fff710" stroke-width="0.5"/>
  <line x1="0" y1="60" x2="900" y2="60" stroke="#00fff710" stroke-width="0.5"/>
  <line x1="0" y1="80" x2="900" y2="80" stroke="#00fff710" stroke-width="0.5"/>
  <line x1="0" y1="100" x2="900" y2="100" stroke="#00fff710" stroke-width="0.5"/>
  <line x1="0" y1="120" x2="900" y2="120" stroke="#00fff710" stroke-width="0.5"/>
  <line x1="0" y1="140" x2="900" y2="140" stroke="#00fff720" stroke-width="0.5"/>
  <line x1="100" y1="0" x2="100" y2="160" stroke="#00fff708" stroke-width="0.5"/>
  <line x1="200" y1="0" x2="200" y2="160" stroke="#00fff708" stroke-width="0.5"/>
  <line x1="300" y1="0" x2="300" y2="160" stroke="#00fff708" stroke-width="0.5"/>
  <line x1="400" y1="0" x2="400" y2="160" stroke="#00fff708" stroke-width="0.5"/>
  <line x1="500" y1="0" x2="500" y2="160" stroke="#00fff708" stroke-width="0.5"/>
  <line x1="600" y1="0" x2="600" y2="160" stroke="#00fff708" stroke-width="0.5"/>
  <line x1="700" y1="0" x2="700" y2="160" stroke="#00fff708" stroke-width="0.5"/>
  <line x1="800" y1="0" x2="800" y2="160" stroke="#00fff708" stroke-width="0.5"/>
  <!-- Corner brackets -->
  <polyline points="20,10 10,10 10,30" fill="none" stroke="#00fff7" stroke-width="1.5"/>
  <polyline points="880,10 890,10 890,30" fill="none" stroke="#00fff7" stroke-width="1.5"/>
  <polyline points="20,150 10,150 10,130" fill="none" stroke="#E0115F" stroke-width="1.5"/>
  <polyline points="880,150 890,150 890,130" fill="none" stroke="#E0115F" stroke-width="1.5"/>
  <!-- Accent lines left -->
  <line x1="30" y1="80" x2="180" y2="80" stroke="#E0115F" stroke-width="1"/>
  <line x1="30" y1="83" x2="120" y2="83" stroke="#E0115F40" stroke-width="0.5"/>
  <!-- Accent lines right -->
  <line x1="870" y1="80" x2="720" y2="80" stroke="#00fff7" stroke-width="1"/>
  <line x1="870" y1="83" x2="780" y2="83" stroke="#00fff740" stroke-width="0.5"/>
  <!-- Main name -->
  <text x="450" y="72" font-family="'Courier New', monospace" font-size="46" font-weight="700" fill="#ffffff" text-anchor="middle" letter-spacing="8">AYMEN HAKKAOUI</text>
  <!-- Subtitle -->
  <text x="450" y="104" font-family="'Courier New', monospace" font-size="13" fill="#00fff7" text-anchor="middle" letter-spacing="6">SOFTWARE ENGINEERING STUDENT</text>
  <!-- Bottom bar -->
  <rect x="0" y="152" width="900" height="3" fill="#E0115F"/>
  <rect x="0" y="155" width="900" height="1" fill="#E0115F40"/>
  <!-- Small decorative dots -->
  <circle cx="450" cy="118" r="2" fill="#E0115F"/>
  <circle cx="430" cy="118" r="1.5" fill="#E0115F60"/>
  <circle cx="410" cy="118" r="1" fill="#E0115F30"/>
  <circle cx="470" cy="118" r="1.5" fill="#E0115F60"/>
  <circle cx="490" cy="118" r="1" fill="#E0115F30"/>
  <!-- System tag -->
  <text x="30" y="145" font-family="'Courier New', monospace" font-size="9" fill="#ffffff30" letter-spacing="2">SYS://CASABLANCA.MA</text>
  <text x="870" y="145" font-family="'Courier New', monospace" font-size="9" fill="#ffffff30" letter-spacing="2" text-anchor="end">FSAC_2024-2027</text>
</svg>
